<svg width="64" height="23" viewBox="0 0 64 23" fill="none" xmlns="http://www.w3.org/2000/svg">
<path d="M1.48638 10.6806C0.657999 10.6892 -0.00656584 11.3677 0.00203404 12.196C0.0106339 13.0244 0.689142 13.689 1.51752 13.6804L1.48638 10.6806ZM62.6641 12.6062C63.2438 12.0144 63.2339 11.0647 62.6421 10.485L52.9976 1.0387C52.4057 0.459022 51.4561 0.468882 50.8764 1.06072C50.2967 1.65255 50.3066 2.60225 50.8984 3.18192L59.4713 11.5787L51.0746 20.1516C50.4949 20.7434 50.5048 21.6931 51.0966 22.2728C51.6884 22.8525 52.6381 22.8426 53.2178 22.2508L62.6641 12.6062ZM1.51752 13.6804L61.6081 13.0566L61.5769 10.0567L1.48638 10.6806L1.51752 13.6804Z" fill="#B8B8B8"/>
</svg>
