<svg width="99" height="99" viewBox="0 0 99 99" fill="none" xmlns="http://www.w3.org/2000/svg">
<circle cx="49.5" cy="49.5" r="48.5" stroke="#FFF" stroke-width="2"/>
<path d="M27.4496 41.2148C28.4471 41.2148 29.3179 41.3573 30.0621 41.6423C30.8063 41.9273 31.5346 42.3628 32.2471 42.9486L30.6559 44.8011C29.69 44.0253 28.6767 43.6373 27.6159 43.6373C26.3967 43.6373 25.415 44.1282 24.6709 45.1098C23.9425 46.0915 23.5783 47.6353 23.5783 49.7411C23.5783 51.7994 23.9425 53.3273 24.6709 54.3248C25.3992 55.3223 26.3809 55.8211 27.6159 55.8211C28.265 55.8211 28.8429 55.7103 29.3496 55.4886C29.8563 55.2511 30.3946 54.9186 30.9646 54.4911L32.4371 56.3436C31.8829 56.9136 31.1784 57.3886 30.3234 57.7686C29.4842 58.1486 28.5421 58.3386 27.4971 58.3386C26.0721 58.3386 24.8134 58.0061 23.7209 57.3411C22.6284 56.6761 21.7813 55.7023 21.1796 54.4198C20.5779 53.1215 20.2771 51.5619 20.2771 49.7411C20.2771 47.9519 20.5858 46.4161 21.2033 45.1336C21.8367 43.8511 22.6917 42.8773 23.7683 42.2123C24.8608 41.5473 26.0879 41.2148 27.4496 41.2148Z" fill="#FFF"/>
<path d="M39.8081 51.4036H37.8131V57.9823H34.6781V41.5711H39.5706C43.909 41.5711 46.0781 43.1782 46.0781 46.3923C46.0781 47.4848 45.809 48.3873 45.2706 49.0998C44.7323 49.8123 43.8931 50.3903 42.7531 50.8336L47.0519 57.9823H43.4419L39.8081 51.4036ZM37.8131 49.1473H39.7606C40.7581 49.1473 41.5102 48.9336 42.0169 48.5061C42.5394 48.0628 42.8006 47.3582 42.8006 46.3923C42.8006 45.5057 42.5315 44.8644 41.9931 44.4686C41.4706 44.0569 40.6394 43.8511 39.4994 43.8511H37.8131V49.1473Z" fill="#FFF"/>
<path d="M58.7209 41.5711L58.3884 43.8986H52.3322V48.4823H57.6047V50.8098H52.3322V55.6311H58.8159V57.9823H49.1972V41.5711H58.7209Z" fill="#FFF"/>
<path d="M79.3662 41.5711L76.3499 57.9823H72.2649L69.7712 44.8961L67.2062 57.9823H63.2399L60.2712 41.5711H63.3824L65.4724 55.4886L68.1562 41.5711H71.4812L74.1174 55.4886L76.3974 41.5711H79.3662Z" fill="#FFF"/>
<path d="M17.2679 32.5356H81.7322" stroke="#FFF" stroke-width="2"/>
<path d="M17.2679 68.1606H81.7322" stroke="#FFF" stroke-width="2"/>
</svg>
